<?xml version="1.0" encoding="UTF-8" standalone="no" ?>
<!DOCTYPE svg PUBLIC "-//W3C//DTD SVG 1.1//EN" "http://www.w3.org/Graphics/SVG/1.1/DTD/svg11.dtd">
<svg xmlns="http://www.w3.org/2000/svg" xmlns:xlink="http://www.w3.org/1999/xlink" version="1.1" width="1080" height="1080" viewBox="0 0 1080 1080" xml:space="preserve">
<desc>Created with Fabric.js 5.2.4</desc>
<defs>
</defs>
<g transform="matrix(1 0 0 1 540 540)" id="2d779382-3510-439e-b5f8-d213df5226e8"  >
<rect style="stroke: none; stroke-width: 1; stroke-dasharray: none; stroke-linecap: butt; stroke-dashoffset: 0; stroke-linejoin: miter; stroke-miterlimit: 4; fill: rgb(255,255,255); fill-rule: nonzero; opacity: 1; visibility: hidden;" vector-effect="non-scaling-stroke"  x="-540" y="-540" rx="0" ry="0" width="1080" height="1080" />
</g>
<g transform="matrix(1 0 0 1 540 540)" id="58373416-2869-4105-a7c1-5d311f105b0d"  >
</g>
<g transform="matrix(1 0 0 1 540 540)"  >
<path style="stroke: none; stroke-width: 1; stroke-dasharray: none; stroke-linecap: butt; stroke-dashoffset: 0; stroke-linejoin: miter; stroke-miterlimit: 4; fill: rgb(24,155,246); fill-rule: nonzero; opacity: 1;" vector-effect="non-scaling-stroke"  transform=" translate(-201, -201)" d="M 401 181 C 401 194.020889 401 207.041794 400.62735 220.725586 C 398.163635 232.80632 396.869324 244.441162 393.829865 255.600662 C 385.231506 287.169678 369.263855 314.766113 346.867554 338.629669 C 328.258453 358.457977 306.363617 373.682098 281.575562 384.702271 C 267.511963 390.954651 252.889084 395.566956 237.636215 398.023621 C 232.075272 398.919281 226.544525 400.002411 221 401 C 207.979111 401 194.958206 401 181.274414 400.627319 C 169.194885 398.163757 157.560394 396.871948 146.403076 393.830017 C 114.669266 385.178009 86.954208 369.106689 63.017616 346.525085 C 43.360947 327.98114 28.255943 306.209106 17.302145 281.581726 C 11.046416 267.517029 6.433743 252.891907 3.976374 237.636871 C 3.080558 232.075745 1.997587 226.544739 1.000001 221 C 1 207.979111 1 194.958206 1.372661 181.274414 C 3.836364 169.193817 5.127366 157.557953 8.170514 146.399948 C 16.824888 114.667862 32.894005 86.951981 55.476185 63.016171 C 74.020462 43.360291 95.791954 28.255278 120.419022 17.301712 C 134.483551 11.046123 149.108536 6.433653 164.363388 3.976364 C 169.924454 3.080574 175.455338 1.997584 181 1 C 194.020889 1 207.041794 1 220.725586 1.372649 C 232.806396 3.83638 244.44133 5.130673 255.600891 8.170186 C 287.169891 16.768597 314.766357 32.736259 338.629883 55.132687 C 358.457977 73.741783 373.681976 95.636475 384.702209 120.424332 C 390.954651 134.487946 395.566864 149.110916 398.023651 164.36377 C 398.919373 169.924698 400.002411 175.455475 401 181 M 130.99823 173.5 C 130.99823 182.274246 130.99823 191.048492 130.99823 199.747467 C 144.673691 199.747467 157.710175 199.747467 170.979538 199.747467 C 170.979538 196.656082 170.944214 194.0009 170.98526 191.346909 C 171.245514 174.522568 184.751846 161.124954 201.312271 161.245605 C 217.601776 161.364273 230.780182 174.750183 231.015305 191.434982 C 231.054413 194.210861 231.020813 196.987762 231.020813 199.776428 C 244.684341 199.776428 257.720551 199.776428 270.920959 199.776428 C 272.290924 170.894577 262.746857 147.260452 238.103455 132.03804 C 208.823685 113.951698 180.405624 118.318161 153.576691 138.988708 C 150.806885 135.802872 147.72113 132.915192 145.449142 129.488037 C 141.881912 124.107094 137.254745 122.911682 130.99823 124.666534 C 130.99823 140.573669 130.99823 156.536835 130.99823 173.5 M 147.502197 281.000366 C 155.249344 281.000366 162.996475 281.000366 170.55896 281.000366 C 170.55896 258.522125 170.55896 236.814194 170.55896 215.198563 C 157.233673 215.198563 144.316757 215.198563 131.306778 215.198563 C 131.306778 237.216843 131.306778 258.926758 131.306778 281.000366 C 136.572861 281.000366 141.538422 281.000366 147.502197 281.000366 M 271.000305 226.519394 C 271.000305 222.752014 271.000305 218.98465 271.000305 215.315659 C 257.308563 215.315659 244.275787 215.315659 231.282852 215.315659 C 231.282852 237.326981 231.282852 258.913269 231.282852 280.686951 C 244.573227 280.686951 257.611115 280.686951 271.000305 280.686951 C 271.000305 262.754669 271.000305 245.133606 271.000305 226.519394 z" stroke-linecap="round" />
</g>
</svg>